<svg width="150" height="150" viewBox="0 0 150 150" fill="none" xmlns="http://www.w3.org/2000/svg">
<path d="M24.179 25.821L20.1165 46.696H105.054L102.304 60.196H17.429L13.304 81.0085H98.2415L93.4915 104.821L59.2414 116.134L29.554 104.821L31.6165 94.571H10.7415L5.80396 119.571L54.8665 138.321L111.429 119.571L130.054 25.821H24.179Z" fill="#2E6DFF"/>
<path d="M31.25 18.75H137.125L130.054 25.8211H24.179L31.25 18.75Z" fill="#2E6DFF"/>
<path d="M109.375 53.125L112.125 39.625L105.054 46.6961L102.304 60.1961L109.375 53.125Z" fill="#2E6DFF"/>
<path d="M137.125 18.75L118.5 112.5L111.429 119.571L130.054 25.8211L137.125 18.75Z" fill="#2E6DFF"/>
<path d="M112.125 39.625H27.1875L20.1165 46.6961H105.054L112.125 39.625Z" fill="#2E6DFF"/>
<path d="M100.563 97.75L105.313 73.9375L98.2415 81.0086L93.4915 104.821L100.563 97.75Z" fill="#2E6DFF"/>
<path d="M24.5 53.125H109.375L102.304 60.1961H17.429L24.5 53.125Z" fill="#2E6DFF"/>
<path d="M27.1875 39.625L31.25 18.75L24.179 25.8211L20.1165 46.6961L27.1875 39.625Z" fill="#2E6DFF"/>
<path d="M105.313 73.9375H20.375L13.304 81.0086H98.2415L105.313 73.9375Z" fill="#2E6DFF"/>
<path d="M66.3125 109.063L100.563 97.75L93.4915 104.821L59.2415 116.134L66.3125 109.063Z" fill="#2E6DFF"/>
<path d="M118.5 112.5L61.9375 131.25L54.8665 138.321L111.429 119.571L118.5 112.5Z" fill="#2E6DFF"/>
<path d="M20.375 73.9375L24.5 53.125L17.429 60.1961L13.304 81.0086L20.375 73.9375Z" fill="#2E6DFF"/>
<path d="M36.625 97.75L66.3125 109.063L59.2414 116.134L29.554 104.821L36.625 97.75Z" fill="#2E6DFF"/>
<path d="M38.6875 87.5L36.625 97.75L29.554 104.821L31.6165 94.5711L38.6875 87.5Z" fill="#2E6DFF"/>
<path d="M17.8125 87.5H38.6875L31.6165 94.5711H10.7415L17.8125 87.5Z" fill="#2E6DFF"/>
<path d="M61.9375 131.25L12.875 112.5L5.80396 119.571L54.8665 138.321L61.9375 131.25Z" fill="#2E6DFF"/>
<path d="M12.875 112.5L17.8125 87.5L10.7415 94.5711L5.80396 119.571L12.875 112.5Z" fill="#2E6DFF"/>
<path d="M31.25 18.75L27.1875 39.625H112.125L109.375 53.125H24.5L20.375 73.9375H105.312L100.562 97.75L66.3125 109.063L36.625 97.75L38.6875 87.5H17.8125L12.875 112.5L61.9375 131.25L118.5 112.5L126 74.8125L127.5 67.25L137.125 18.75H31.25Z" fill="#2DB3FF"/>
</svg>
