<svg width="150" height="149" viewBox="0 0 150 149" fill="none" xmlns="http://www.w3.org/2000/svg">
<path d="M82.0393 53.7718C85.2146 50.5953 90.5356 46.8194 98.8824 41.9893C98.8824 41.9893 83.7953 45.7359 75.8445 53.6847C70.4116 59.1163 68.3107 66.5099 76.6324 76.011C81.6045 81.6628 77.3699 86.8553 75.6858 88.5403C75.3165 88.9097 75.0699 89.1106 75.0699 89.1106C75.0699 89.1106 78.4441 87.4005 81.2877 84.5583C84.5017 81.3459 87.0377 76.6872 83.2574 71.4168C78.6616 65.0859 74.8479 60.9659 82.0393 53.7718ZM70.9449 49.4393C96.2574 29.5726 83.2574 16.6593 83.2574 16.6593C85.611 25.844 82.1362 32.1588 76.8144 37.4834C71.6619 42.6385 64.7779 46.8653 59.7758 51.8696C58.4199 53.2261 57.2023 54.6396 56.1949 56.1443C50.3199 64.836 59.0699 74.2106 70.7574 84.951C66.3199 74.3968 50.6324 65.3326 70.9449 49.4393ZM53.4951 113.339C53.8772 112.957 54.3199 112.702 54.3199 112.702C51.6463 113.444 49.942 114.294 49.0548 115.181C43.5544 120.682 69.464 127.59 90.5074 118.662C88.1324 117.731 85.8199 116.613 83.6324 115.31C75.1324 117.234 66.3824 117.607 57.7574 116.427C52.0693 115.737 52.6255 114.208 53.4951 113.339ZM87.5699 102.272C76.6324 104.631 65.3199 105.19 54.1949 103.886C47.9508 103.271 49.5949 100.814 50.7271 99.6821C51.0795 99.3298 51.3824 99.106 51.3824 99.106C30.1324 106.121 63.1324 114.006 92.6324 105.438C90.8199 104.756 89.0699 103.576 87.5699 102.272ZM108.945 122.76C108.945 122.76 110.772 124.256 109.101 125.926C108.438 126.589 107.226 127.278 105.132 127.913C90.8824 132.134 46.1949 133.438 33.8199 128.099C32.3202 127.448 32.2839 126.713 32.9945 126.003C34.3864 124.611 38.6445 123.316 40.3824 122.946C41.8199 122.573 43.2574 122.449 44.6949 122.449C41.5136 120.289 29.1212 123.748 25.6232 127.245C23.6923 129.176 24.4717 131.119 31.0074 132.134C80.8199 140.205 121.882 128.409 108.945 122.76ZM91.8199 92.5872C93.6324 91.4076 95.5699 90.4143 97.5699 89.5451C97.5699 89.5451 88.1324 91.1593 78.6949 92.0285C68.6949 93.0218 58.6324 93.146 48.6324 92.401C43.854 91.7748 43.0381 90.7676 44.1123 89.6934C46.3398 87.466 56.6949 84.951 56.6949 84.951C49.8199 84.951 43.0699 86.5651 36.9449 89.6072C24.1324 95.8156 68.8199 98.6093 91.8199 92.5872ZM107.481 100.672C105.248 102.904 101.996 105.248 97.4449 107.611C97.3542 107.792 97.2635 107.939 97.125 108.078C97.0727 108.13 97.0135 108.181 96.9449 108.232C104.929 106.159 110.129 103.27 113.198 100.201C122.166 91.2359 112.933 80.7394 101.757 84.5785C101.19 84.8388 100.683 85.1598 100.28 85.5627C100.106 85.7362 99.9516 85.9249 99.8199 86.1306C100.695 85.8201 101.57 85.5718 102.507 85.3856C108.543 84.1864 116.684 91.4718 107.481 100.672ZM116.135 129.892C114.782 131.245 110.519 133.948 98.2574 136.232C79.4449 139.46 60.1949 139.708 41.2574 137.101C41.2574 137.101 44.1324 139.46 58.8199 140.391C78.503 141.641 107.417 140.087 114.893 132.612C115.962 131.542 116.593 130.351 116.695 129.03C116.747 129.047 116.659 129.369 116.135 129.892Z" fill="#FD9258"/>
<path d="M81.0571 33.2407C86.3789 27.9162 89.8537 21.6013 87.5001 12.4167L83.2574 16.6593C85.611 25.844 82.1363 32.1588 76.8145 37.4834L81.0571 33.2407Z" fill="#FD9258"/>
<path d="M75.1876 45.1967C76.6395 44.0571 77.9654 42.9404 79.175 41.8477C93.0093 26.3462 83.2574 16.6593 83.2574 16.6593L87.5001 12.4167C87.5001 12.4167 99.0515 23.8911 79.175 41.8477C77.0363 44.2441 74.3341 46.7794 70.9449 49.4393L75.1876 45.1967Z" fill="#FD9258"/>
<path d="M103.125 37.7467C94.7783 42.5768 89.4573 46.3527 86.2819 49.5292L82.0465 53.7647C85.2227 50.5896 90.542 46.8158 98.8824 41.9893L103.125 37.7467Z" fill="#FD9258"/>
<path d="M80.0871 49.4421C88.0379 41.4933 103.125 37.7467 103.125 37.7467L98.8823 41.9893C98.8823 41.9893 83.7953 45.736 75.8445 53.6848L80.0871 49.4421Z" fill="#FD9258"/>
<path d="M64.0184 47.627C69.0156 42.6277 75.8909 38.4042 81.0418 33.256L76.8144 37.4834C71.666 42.6344 64.7889 46.8586 59.7878 51.8576L64.0184 47.627Z" fill="#FD9258"/>
<path d="M86.2819 49.5292C79.0905 56.7232 82.9043 60.8433 87.5 67.1742L83.2574 71.4168C78.6616 65.0859 74.8479 60.9659 82.0393 53.7718L86.2819 49.5292Z" fill="#FD9258"/>
<path d="M104.522 81.3201C104.925 80.9172 105.432 80.5962 106 80.3359L101.757 84.5785C101.19 84.8389 100.683 85.1599 100.28 85.5627L104.522 81.3201Z" fill="#FD9258"/>
<path d="M106.75 81.1429C105.813 81.3292 104.938 81.5775 104.063 81.8879L99.8199 86.1306C100.695 85.8202 101.57 85.5718 102.507 85.3856L106.75 81.1429Z" fill="#FD9258"/>
<path d="M106 80.3358C117.176 76.4968 126.408 86.9933 117.441 95.9588L113.201 100.199C122.164 91.2338 112.932 80.7398 101.757 84.5785L106 80.3358Z" fill="#FD9258"/>
<path d="M104.063 81.888C104.194 81.6829 104.348 81.4947 104.521 81.3215L100.28 85.5627C100.106 85.7363 99.9517 85.925 99.8199 86.1306L104.063 81.888Z" fill="#FD9258"/>
<path d="M111.723 96.4297C120.927 87.2292 112.786 79.9438 106.75 81.143L102.507 85.3856C108.542 84.1867 116.681 91.4689 107.486 100.667L111.723 96.4297Z" fill="#FD9258"/>
<path d="M80.875 71.7683C72.5556 62.2697 74.6532 54.8775 80.0829 49.4463L75.8445 53.6847C70.4116 59.1163 68.3107 66.5099 76.6324 76.011L80.875 71.7683Z" fill="#FD9258"/>
<path d="M87.5001 67.1742C91.2804 72.4446 88.7444 77.1033 85.5304 80.3157L81.2949 84.5512C84.5055 81.339 87.035 76.6833 83.2574 71.4168L87.5001 67.1742Z" fill="#FD9258"/>
<path d="M60.4376 51.9017C61.445 50.397 62.6626 48.9835 64.0185 47.627L59.7758 51.8697C58.4199 53.2261 57.2023 54.6397 56.1949 56.1443L60.4376 51.9017Z" fill="#FD9258"/>
<path d="M69.0511 50.9897C58.7122 63.4384 71.1314 71.5072 75 80.7084L70.7574 84.951C66.4662 74.7449 51.6548 65.9321 69.0511 50.9897C70.5714 49.1592 72.5837 47.2341 75.1875 45.1967L70.9449 49.4394C70.2751 49.9635 69.6444 50.4801 69.0511 50.9897Z" fill="#FD9258"/>
<path d="M101.813 85.3025C99.8126 86.1717 97.8751 87.165 96.0626 88.3446L91.8199 92.5872C93.6324 91.4076 95.57 90.4143 97.57 89.5451L101.813 85.3025Z" fill="#FD9258"/>
<path d="M117.441 95.9588C114.372 99.027 109.171 101.916 101.188 103.99L96.9449 108.232C104.929 106.159 110.129 103.27 113.198 100.201L117.441 95.9588Z" fill="#FD9258"/>
<path d="M101.688 103.369C106.238 101.006 109.491 98.6613 111.723 96.4297L107.481 100.672C105.248 102.904 101.996 105.248 97.4449 107.611L101.688 103.369Z" fill="#FD9258"/>
<path d="M82.9376 87.7858C92.3751 86.9167 101.813 85.3025 101.813 85.3025L97.5699 89.5451C97.5699 89.5451 88.1324 91.1593 78.6949 92.0285L82.9376 87.7858Z" fill="#FD9258"/>
<path d="M79.9284 84.2977C81.6125 82.6127 85.8472 77.4202 80.875 71.7684L76.6324 76.011C81.6045 81.6629 77.3698 86.8554 75.6858 88.5403L79.9284 84.2977Z" fill="#FD9258"/>
<path d="M75.0001 80.7083C63.3126 69.9679 54.5626 60.5933 60.4376 51.9017L56.1949 56.1443C50.3199 64.836 59.0699 74.2106 70.7574 84.951L75.0001 80.7083Z" fill="#FD9258"/>
<path d="M85.5304 80.3157C82.6868 83.1578 79.3126 84.8679 79.3126 84.8679L75.0699 89.1106C75.0699 89.1106 78.4442 87.4005 81.2877 84.5583L85.5304 80.3157Z" fill="#FD9258"/>
<path d="M101.368 103.835C101.506 103.696 101.597 103.549 101.688 103.369L97.4449 107.611C97.3542 107.792 97.2635 107.939 97.125 108.078L101.368 103.835Z" fill="#FD9258"/>
<path d="M101.188 103.99C101.256 103.939 101.315 103.888 101.367 103.836L97.1251 108.078C97.0727 108.13 97.0135 108.181 96.9449 108.232L101.188 103.99Z" fill="#FD9258"/>
<path d="M120.378 125.649C120.901 125.126 120.99 124.805 120.938 124.788L116.695 129.03C116.747 129.047 116.659 129.368 116.137 129.89L120.378 125.649Z" fill="#FD9258"/>
<path d="M79.3126 84.8679C79.3126 84.8679 79.5572 84.6688 79.9239 84.3023L75.6859 88.5402C75.3166 88.9097 75.0699 89.1106 75.0699 89.1106L79.3126 84.8679Z" fill="#FD9258"/>
<path d="M91.8126 98.0296C93.3126 99.3334 95.0626 100.513 96.8751 101.196L92.6324 105.438C90.8199 104.756 89.0699 103.576 87.5699 102.272L91.8126 98.0296Z" fill="#FD9258"/>
<path d="M120.938 124.788C120.836 126.109 120.205 127.3 119.135 128.37L114.893 132.611C115.963 131.542 116.593 130.351 116.695 129.03L120.938 124.788Z" fill="#FD9258"/>
<path d="M113.344 121.684C115.014 120.013 113.188 118.517 113.188 118.517L108.945 122.76C108.945 122.76 110.771 124.256 109.102 125.925L113.344 121.684Z" fill="#FD9258"/>
<path d="M109.375 123.67C111.469 123.035 112.681 122.346 113.344 121.684L109.101 125.926C108.438 126.589 107.226 127.278 105.132 127.913L109.375 123.67Z" fill="#FD9258"/>
<path d="M102.5 131.989C114.761 129.705 119.025 127.002 120.378 125.649L116.136 129.892C114.782 131.245 110.519 133.948 98.2574 136.232L102.5 131.989Z" fill="#FD9258"/>
<path d="M38.9346 87.6175C38.8168 86.9333 39.5083 86.1783 41.1875 85.3646L38.9346 87.6175C39.7161 92.1538 76.0769 93.5774 96.0625 88.3446L91.8199 92.5873C68.8199 98.6093 24.1324 95.8156 36.9449 89.6073L38.9346 87.6175Z" fill="#FD9258"/>
<path d="M52.8751 88.1584C62.8751 88.9034 72.9376 88.7792 82.9376 87.7859L78.695 92.0285C68.695 93.0219 58.6324 93.146 48.6324 92.401L52.8751 88.1584Z" fill="#FD9258"/>
<path d="M87.8751 111.067C90.0626 112.371 92.3751 113.488 94.7501 114.42L90.5074 118.662C88.1324 117.731 85.8199 116.613 83.6324 115.31L87.8751 111.067Z" fill="#FD9258"/>
<path d="M48.9537 100.008C48.3984 98.4181 50.3233 96.6137 55.625 94.8633L51.3824 99.106C50.4755 99.4054 49.6674 99.7064 48.9537 100.008C50.6238 104.789 74.7351 107.626 96.875 101.196L92.6324 105.438C64.3914 113.64 32.9427 106.764 48.9537 100.008Z" fill="#FD9258"/>
<path d="M58.4376 99.6438C69.5626 100.948 80.8751 100.389 91.8126 98.0296L87.5699 102.272C76.6324 104.631 65.3199 105.19 54.1949 103.886L58.4376 99.6438Z" fill="#FD9258"/>
<path d="M60.9375 80.7084C60.9375 80.7084 50.5825 83.2234 48.3549 85.4508L44.1123 89.6935C46.3398 87.466 56.6949 84.951 56.6949 84.951L60.9375 80.7084Z" fill="#FD9258"/>
<path d="M41.1876 85.3646C47.3126 82.3225 54.0626 80.7084 60.9376 80.7084L56.6949 84.951C49.8199 84.951 43.0699 86.5652 36.9449 89.6073L41.1876 85.3646Z" fill="#FD9258"/>
<path d="M48.355 85.4508C47.2808 86.5249 48.0966 87.5322 52.8751 88.1584L48.6324 92.401C43.854 91.7749 43.0382 90.7676 44.1124 89.6934L48.355 85.4508Z" fill="#FD9258"/>
<path d="M62.0001 112.185C70.6251 113.364 79.3751 112.992 87.8751 111.067L83.6324 115.31C75.1324 117.234 66.3824 117.607 57.7574 116.427L62.0001 112.185Z" fill="#FD9258"/>
<path d="M94.75 114.42C73.7066 123.348 47.7971 116.439 53.2975 110.939L49.0549 115.181C43.5544 120.682 69.464 127.59 90.5074 118.662L94.75 114.42Z" fill="#FD9258"/>
<path d="M55.6251 94.8633C55.6251 94.8633 55.3222 95.0872 54.9698 95.4395L50.7272 99.6821C51.0796 99.3298 51.3824 99.106 51.3824 99.106L55.6251 94.8633Z" fill="#FD9258"/>
<path d="M54.9676 95.4417C53.8354 96.5744 52.1975 99.0286 58.4375 99.6438L54.1949 103.886C47.9508 103.271 49.5949 100.814 50.7271 99.6821L54.9676 95.4417Z" fill="#FD9258"/>
<path d="M119.135 128.37C111.66 135.844 82.7457 137.398 63.0626 136.149L58.8199 140.391C78.503 141.641 107.417 140.087 114.893 132.612L119.135 128.37Z" fill="#FD9258"/>
<path d="M35.2501 127.892C69.898 133.505 100.313 129.508 111.266 124.652C111.022 123.976 110.264 123.336 108.945 122.76L113.188 118.517C117.126 120.237 116.06 122.527 111.266 124.652C113.419 130.608 75.7414 139.382 31.0074 132.134L35.2501 127.892Z" fill="#FD9258"/>
<path d="M38.0626 123.856C50.4376 129.195 95.1251 127.892 109.375 123.67L105.132 127.913C90.8824 132.134 46.1949 133.438 33.8199 128.099L38.0626 123.856Z" fill="#FD9258"/>
<path d="M58.5625 108.46C58.5625 108.46 58.1199 108.714 57.7378 109.096L53.4951 113.339C53.8772 112.957 54.3199 112.702 54.3199 112.702L58.5625 108.46Z" fill="#FD9258"/>
<path d="M57.7367 109.097C56.8677 109.967 56.3141 111.495 62 112.185L57.7574 116.427C52.0692 115.737 52.6254 114.208 53.4951 113.339L57.7367 109.097Z" fill="#FD9258"/>
<path d="M53.2975 110.939C54.1846 110.052 55.8889 109.201 58.5625 108.46L54.3199 112.702C51.6463 113.444 49.942 114.294 49.0548 115.181L53.2975 110.939Z" fill="#FD9258"/>
<path d="M45.5001 132.858C64.4376 135.466 83.6876 135.218 102.5 131.989L98.2574 136.232C79.4449 139.46 60.1949 139.709 41.2574 137.101L45.5001 132.858Z" fill="#FD9258"/>
<path d="M48.9376 118.207C47.5001 118.207 46.0626 118.331 44.6251 118.703L40.3824 122.946C41.8199 122.573 43.2574 122.449 44.6949 122.449L48.9376 118.207Z" fill="#FD9258"/>
<path d="M44.6251 118.703C42.8872 119.073 38.6291 120.368 37.2371 121.76L32.9945 126.003C34.3865 124.611 38.6446 123.316 40.3824 122.946L44.6251 118.703Z" fill="#FD9258"/>
<path d="M63.0626 136.149C48.3751 135.218 45.5001 132.858 45.5001 132.858L41.2574 137.101C41.2574 137.101 44.1324 139.46 58.8199 140.391L63.0626 136.149Z" fill="#FD9258"/>
<path d="M29.8659 123.003C33.3639 119.505 45.7563 116.047 48.9376 118.207L44.6949 122.449C41.5136 120.289 29.1213 123.748 25.6233 127.245L29.8659 123.003Z" fill="#FD9258"/>
<path d="M37.2366 121.76C36.5266 122.471 36.5632 123.206 38.0625 123.856L33.8199 128.099C32.3202 127.448 32.2839 126.713 32.9945 126.003L37.2366 121.76Z" fill="#FD9258"/>
<path d="M35.25 127.892C28.715 126.876 27.9351 124.934 29.8653 123.003L25.6232 127.245C23.6923 129.176 24.4717 131.119 31.0074 132.134L35.25 127.892Z" fill="#FD9258"/>
<path d="M103.125 37.7467C103.125 37.7467 60.3751 48.3629 80.8751 71.7684C86.9376 78.6596 79.3126 84.8679 79.3126 84.8679C79.3126 84.8679 94.6251 77.1075 87.5001 67.1742C80.8751 58.0479 75.8751 53.5159 103.125 37.7467ZM75.1876 45.1967C100.5 25.33 87.5001 12.4167 87.5001 12.4167C92.7501 32.9042 69.0001 39.1125 60.4376 51.9017C54.5626 60.5934 63.3126 69.9679 75.0001 80.7084C70.5626 70.1542 54.8751 61.09 75.1876 45.1967ZM58.5626 108.46C39.3126 113.799 70.3126 124.788 94.7501 114.42C92.3751 113.488 90.0626 112.371 87.8751 111.067C79.3751 112.992 70.6251 113.364 62.0001 112.185C53.8126 111.191 58.5626 108.46 58.5626 108.46ZM91.8126 98.0296C80.8751 100.389 69.5626 100.948 58.4376 99.6438C50.2501 98.8367 55.6251 94.8634 55.6251 94.8634C34.3751 101.879 67.3751 109.763 96.8751 101.196C95.0626 100.513 93.3126 99.3334 91.8126 98.0296ZM113.188 118.517C113.188 118.517 116.75 121.435 109.375 123.67C95.1251 127.892 50.4376 129.195 38.0626 123.856C33.6251 121.932 42.0001 119.262 44.6251 118.703C46.0626 118.331 47.5001 118.207 48.9376 118.207C44.0001 114.854 16.8751 125.036 35.2501 127.892C85.0626 135.963 126.125 124.167 113.188 118.517ZM96.0626 88.3446C97.8751 87.165 99.8126 86.1717 101.813 85.3025C101.813 85.3025 92.3751 86.9167 82.9376 87.7859C72.9376 88.7792 62.8751 88.9034 52.8751 88.1584C38.1876 86.2338 60.9376 80.7084 60.9376 80.7084C54.0626 80.7084 47.3126 82.3225 41.1876 85.3646C28.3751 91.5729 73.0626 94.3667 96.0626 88.3446ZM101.688 103.369C101.563 103.617 101.438 103.803 101.188 103.99C132.5 95.8567 121 75.1829 106 80.3359C105.188 80.7084 104.5 81.205 104.063 81.8879C104.938 81.5775 105.813 81.3292 106.75 81.1429C114.25 79.6529 125 91.2625 101.688 103.369ZM102.5 131.989C83.6876 135.218 64.4376 135.466 45.5001 132.858C45.5001 132.858 48.3751 135.218 63.0626 136.149C85.5626 137.577 120.125 135.342 120.938 124.788C121.125 124.85 119.5 128.823 102.5 131.989Z" fill="#FDA759"/>
</svg>
