<svg width="156" height="156" viewBox="0 0 156 156" fill="none" xmlns="http://www.w3.org/2000/svg">
<path d="M22 23.8301H139V140.83H22V23.8301ZM52.745 121.59C55.345 127.115 60.48 131.665 69.255 131.665C79.005 131.665 85.7 126.465 85.7 115.09V77.5201H74.65V114.83C74.65 120.42 72.375 121.85 68.8 121.85C65.03 121.85 63.47 119.25 61.715 116.195L52.745 121.59ZM91.615 120.42C94.865 126.79 101.43 131.665 111.7 131.665C122.1 131.665 129.9 126.27 129.9 116.325C129.9 113.082 129.241 110.473 127.974 108.278C125.661 104.27 121.323 101.639 115.275 99.0351L112.545 97.8651C109.292 96.4835 107.322 95.4075 106.405 93.8199C105.984 93.0921 105.785 92.2567 105.785 91.2351C105.785 88.5701 107.8 86.4901 111.05 86.4901C114.17 86.4901 116.25 87.8551 118.135 91.2351L126.65 85.5801C123.075 79.3401 118.005 76.9351 111.05 76.9351C101.235 76.9351 94.93 83.1751 94.93 91.4301C94.93 94.6901 95.6254 97.3233 96.8914 99.5171C99.1089 103.36 103.077 105.854 108.125 108.005L110.855 109.175C114.545 110.784 117.133 111.944 118.269 113.911C118.693 114.646 118.915 115.494 118.915 116.52C118.915 119.64 115.99 121.915 111.44 121.915C106.045 121.915 102.925 119.12 100.585 115.22L91.615 120.42Z" fill="#FA9E00"/>
<path d="M136.5 19.5H19.5L22 23.8301H139L136.5 19.5Z" fill="#FA9E00"/>
<path d="M19.5 19.5V136.5L22 140.83V23.8301L19.5 19.5Z" fill="#FA9E00"/>
<path d="M72.15 73.19H83.2L85.7 77.5201H74.65L72.15 73.19Z" fill="#FA9E00"/>
<path d="M72.15 110.5V73.19L74.65 77.5201V114.83L72.15 110.5Z" fill="#FA9E00"/>
<path d="M92.4301 87.1C92.4301 78.845 98.7351 72.605 108.55 72.605L111.05 76.9351C101.235 76.9351 94.9301 83.1751 94.9301 91.4301L92.4301 87.1Z" fill="#FA9E00"/>
<path d="M83.2 73.19V110.76L85.7 115.09V77.5201L83.2 73.19Z" fill="#FA9E00"/>
<path d="M108.55 72.605C115.505 72.605 120.575 75.01 124.15 81.25L126.57 85.4411C126.597 85.4872 126.623 85.5336 126.65 85.5801L126.57 85.4411C122.999 79.3044 117.953 76.9351 111.05 76.9351L108.55 72.605Z" fill="#FA9E00"/>
<path d="M94.3915 95.1869C93.1255 92.9932 92.4301 90.36 92.4301 87.1L94.9301 91.4301C94.9301 94.6901 95.6255 97.3233 96.8915 99.5171L94.3915 95.1869Z" fill="#FA9E00"/>
<path d="M108.55 82.16C105.3 82.16 103.285 84.24 103.285 86.905L105.785 91.2351C105.785 88.5701 107.8 86.4901 111.05 86.4901L108.55 82.16Z" fill="#FA9E00"/>
<path d="M50.245 117.26L59.215 111.865L61.715 116.195L52.745 121.59L50.245 117.26Z" fill="#FA9E00"/>
<path d="M103.285 86.905C103.285 87.9266 103.484 88.7619 103.905 89.4898L106.404 93.8184C105.984 93.0909 105.785 92.256 105.785 91.2351L103.285 86.905Z" fill="#FA9E00"/>
<path d="M108.55 82.16C111.67 82.16 113.75 83.525 115.635 86.905L117.859 90.7561C117.951 90.9111 118.043 91.0707 118.135 91.2351L117.859 90.7561C116.045 87.7256 114.018 86.4901 111.05 86.4901L108.55 82.16Z" fill="#FA9E00"/>
<path d="M59.5383 112.425C61.171 115.231 62.7627 117.52 66.3 117.52L68.8 121.85C65.03 121.85 63.47 119.25 61.715 116.195L59.5383 112.425C59.4309 112.24 59.3233 112.054 59.215 111.865L59.5383 112.425Z" fill="#FA9E00"/>
<path d="M103.905 89.4898C104.822 91.0774 106.792 92.1534 110.045 93.535L112.545 97.8651C109.292 96.4835 107.322 95.4075 106.405 93.8199L103.905 89.4898Z" fill="#FA9E00"/>
<path d="M124.15 81.25L115.635 86.905L118.135 91.2351L126.65 85.5801L124.15 81.25Z" fill="#FA9E00"/>
<path d="M66.3 117.52C69.875 117.52 72.1501 116.09 72.1501 110.5L74.6501 114.83C74.6501 120.42 72.375 121.85 68.8 121.85L66.3 117.52Z" fill="#FA9E00"/>
<path d="M51.8957 120.119C51.2596 119.211 50.7115 118.251 50.245 117.26L51.8957 120.119C54.8049 124.271 59.5545 127.335 66.755 127.335L69.255 131.665C60.48 131.665 55.345 127.115 52.745 121.59L51.8957 120.119Z" fill="#FA9E00"/>
<path d="M136.5 136.5V19.5L139 23.8301V140.83L136.5 136.5Z" fill="#FA9E00"/>
<path d="M105.625 103.675C100.579 101.524 96.6118 99.0312 94.3938 95.1912L96.8914 99.517C99.1089 103.359 103.077 105.854 108.125 108.005L105.625 103.675Z" fill="#FA9E00"/>
<path d="M110.045 93.535L112.775 94.705L115.275 99.0351L112.545 97.8651L110.045 93.535Z" fill="#FA9E00"/>
<path d="M83.2 110.76C83.2 122.135 76.505 127.335 66.755 127.335L69.255 131.665C79.005 131.665 85.7 126.465 85.7 115.09L83.2 110.76Z" fill="#FA9E00"/>
<path d="M108.355 104.845L105.625 103.675L108.125 108.005L110.855 109.175L108.355 104.845Z" fill="#FA9E00"/>
<path d="M89.115 116.09L98.085 110.89L100.585 115.22L91.615 120.42L89.115 116.09Z" fill="#FA9E00"/>
<path d="M112.775 94.705C118.823 97.3088 123.161 99.9398 125.474 103.948L127.971 108.274C125.658 104.268 121.32 101.638 115.275 99.0351L112.775 94.705Z" fill="#FA9E00"/>
<path d="M115.769 109.58C114.633 107.614 112.045 106.453 108.355 104.845L110.855 109.175C114.545 110.784 117.133 111.944 118.269 113.911L115.769 109.58Z" fill="#FA9E00"/>
<path d="M98.085 110.89C100.425 114.79 103.545 117.585 108.94 117.585L111.44 121.915C106.045 121.915 102.925 119.12 100.585 115.22L98.085 110.89Z" fill="#FA9E00"/>
<path d="M116.415 112.19C116.415 111.164 116.194 110.317 115.77 109.582L118.269 113.911C118.693 114.646 118.915 115.494 118.915 116.52L116.415 112.19Z" fill="#FA9E00"/>
<path d="M90.1955 117.962C89.8016 117.355 89.4416 116.73 89.115 116.09L90.1955 117.962C93.7218 123.39 99.962 127.335 109.2 127.335L111.7 131.665C101.43 131.665 94.865 126.79 91.615 120.42L90.1955 117.962Z" fill="#FA9E00"/>
<path d="M108.94 117.585C113.49 117.585 116.415 115.31 116.415 112.19L118.915 116.52C118.915 119.64 115.99 121.915 111.44 121.915L108.94 117.585Z" fill="#FA9E00"/>
<path d="M125.474 103.948C126.741 106.143 127.4 108.752 127.4 111.995L129.9 116.325C129.9 113.082 129.241 110.473 127.974 108.278L125.474 103.948Z" fill="#FA9E00"/>
<path d="M19.5 136.5H136.5L139 140.83H22L19.5 136.5Z" fill="#FA9E00"/>
<path d="M127.4 111.995C127.4 121.94 119.6 127.335 109.2 127.335L111.7 131.665C122.1 131.665 129.9 126.27 129.9 116.325L127.4 111.995Z" fill="#FA9E00"/>
<path d="M19.5 19.5H136.5V136.5H19.5V19.5ZM50.245 117.26C52.845 122.785 57.98 127.335 66.755 127.335C76.505 127.335 83.2 122.135 83.2 110.76V73.19H72.15V110.5C72.15 116.09 69.875 117.52 66.3 117.52C62.53 117.52 60.97 114.92 59.215 111.865L50.245 117.26ZM89.115 116.09C92.365 122.46 98.93 127.335 109.2 127.335C119.6 127.335 127.4 121.94 127.4 111.995C127.4 102.83 122.135 98.735 112.775 94.705L110.045 93.535C105.3 91.52 103.285 90.155 103.285 86.905C103.285 84.24 105.3 82.16 108.55 82.16C111.67 82.16 113.75 83.525 115.635 86.905L124.15 81.25C120.575 75.01 115.505 72.605 108.55 72.605C98.735 72.605 92.43 78.845 92.43 87.1C92.43 96.07 97.695 100.295 105.625 103.675L108.355 104.845C113.425 107.055 116.415 108.42 116.415 112.19C116.415 115.31 113.49 117.585 108.94 117.585C103.545 117.585 100.425 114.79 98.085 110.89L89.115 116.09Z" fill="#FCC400"/>
</svg>
