<svg width="211" height="211" viewBox="0 0 211 211" fill="none" xmlns="http://www.w3.org/2000/svg">
<path d="M98.429 23.3357C96.0552 23.3357 93.5935 23.9511 91.5715 25.094L26.1615 62.8982C25.1337 63.4977 24.1999 64.2223 23.3751 65.0467C20.8132 67.6074 19.304 71.1305 19.304 74.8548V150.287C19.304 155.211 21.9415 159.782 26.1615 162.244L43.3052 172.091C51.6573 176.135 54.4706 176.223 58.339 176.223C64.3209 176.223 69.0777 174.458 72.3872 171.149C75.8872 167.651 77.7685 162.426 77.7685 155.738V81.2727C77.7685 80.2177 76.8894 79.3386 75.8344 79.3386H67.6581C67.0754 79.3386 66.5612 79.5672 66.1971 79.9311C65.8472 80.2808 65.636 80.7557 65.636 81.2727V155.738C65.636 157.95 64.7672 160.15 63.1609 161.756C60.5538 164.365 56.0044 165.412 50.0748 162.42L32.0519 152.134C31.4365 151.694 31.0848 150.991 31.0848 150.287V74.8548C31.0848 74.2388 31.2979 73.6761 31.6827 73.2911C31.7922 73.1816 31.9156 73.0865 32.0519 73.0086L97.4619 35.2923C97.9894 34.9407 98.8685 34.9407 99.396 35.2923L164.806 73.0086C165.421 73.3602 165.773 74.0636 165.773 74.8548V150.287C165.773 150.87 165.532 151.452 165.099 151.885C165.01 151.975 164.912 152.058 164.806 152.134L99.396 189.85C98.8685 190.202 97.9894 190.202 97.374 189.85L80.8456 179.827C80.1423 179.564 79.439 179.476 78.9994 179.739C74.3398 182.377 73.4606 182.904 69.1527 184.223C68.7473 184.358 68.2511 184.532 67.9832 184.8C67.5539 185.229 67.7109 185.9 69.7681 187.036L91.5715 199.96C93.6815 201.191 95.9673 201.807 98.429 201.807C100.891 201.807 103.176 201.191 105.286 199.96L170.696 162.244C171.724 161.644 172.658 160.92 173.483 160.095C176.045 157.535 177.554 154.012 177.554 150.287V74.8548C177.554 69.9315 174.916 65.3598 170.696 62.8982L105.286 25.094C103.264 23.9511 100.891 23.3357 98.429 23.3357ZM116.012 77.4044C104.925 77.4044 96.4825 80.1731 91.4613 85.1924C88.0413 88.611 86.2085 93.0736 86.2085 98.4165C86.2085 112.571 97.286 116.703 115.221 118.461C136.585 120.571 138.255 123.736 138.255 127.956C138.255 130.553 137.509 132.615 135.931 134.195C133.072 137.054 127.484 138.331 118.65 138.331C101.242 138.331 97.5498 134.023 96.231 125.407C96.0552 124.528 95.264 123.824 94.2969 123.824H85.8569C85.34 123.824 84.8865 124.014 84.5583 124.342C84.2165 124.684 84.0106 125.176 84.0106 125.759C84.0106 136.66 89.989 149.848 118.65 149.848C131.015 149.848 140.231 146.919 145.639 141.514C149.266 137.888 151.179 133.147 151.179 127.429C151.179 113.274 141.684 109.582 121.551 106.856C101.242 104.219 99.2202 102.812 99.2202 98.0648C99.2202 96.3096 99.5663 94.2948 101.264 92.5963C103.393 90.4663 107.648 88.8336 116.012 88.8336C129.2 88.8336 134.387 91.7348 136.409 100.79C136.585 101.669 137.376 102.285 138.255 102.285H146.783C147.177 102.285 147.641 102.144 147.986 101.799C148.026 101.758 148.065 101.715 148.102 101.669C148.454 101.318 148.717 100.79 148.541 100.263C147.311 84.6136 136.936 77.4044 116.012 77.4044Z" fill="#00A822"/>
<path d="M177.767 55.8271C181.987 58.2888 184.625 62.8604 184.625 67.7838L177.554 74.8548C177.554 69.9315 174.916 65.3598 170.696 62.8982L177.767 55.8271Z" fill="#00A822"/>
<path d="M112.358 18.0229L177.768 55.8271L170.696 62.8982L105.286 25.094L112.358 18.0229Z" fill="#00A822"/>
<path d="M172.844 67.7837C172.844 66.9925 172.493 66.2892 171.877 65.9375L164.806 73.0086C165.421 73.3602 165.773 74.0636 165.773 74.8548L172.844 67.7837Z" fill="#00A822"/>
<path d="M171.877 65.9375L106.467 28.2213L99.396 35.2923L164.806 73.0086L171.877 65.9375Z" fill="#00A822"/>
<path d="M105.5 16.2646C107.962 16.2646 110.335 16.88 112.358 18.0229L105.286 25.094C103.264 23.9511 100.891 23.3357 98.429 23.3357L105.5 16.2646Z" fill="#00A822"/>
<path d="M98.6425 18.0229C100.665 16.88 103.126 16.2646 105.5 16.2646L98.4289 23.3357C96.0552 23.3357 93.5935 23.9511 91.5714 25.094L98.6425 18.0229Z" fill="#00A822"/>
<path d="M184.625 67.7838V143.216L177.554 150.287V74.8548L184.625 67.7838Z" fill="#00A822"/>
<path d="M106.467 28.2213C105.94 27.8696 105.06 27.8696 104.533 28.2213L97.4619 35.2923C97.9894 34.9407 98.8685 34.9407 99.396 35.2923L106.467 28.2213Z" fill="#00A822"/>
<path d="M172.844 143.216V67.7838L165.773 74.8548V150.287L172.844 143.216Z" fill="#00A822"/>
<path d="M155.612 93.1917C155.788 93.7192 155.525 94.2467 155.173 94.5983L148.102 101.669C148.453 101.318 148.717 100.79 148.541 100.263L155.612 93.1917Z" fill="#00A822"/>
<path d="M155.173 94.5983C155.136 94.6443 155.097 94.6874 155.057 94.7277L147.987 101.798C148.027 101.758 148.065 101.715 148.102 101.669L155.173 94.5983Z" fill="#00A822"/>
<path d="M155.057 94.7277C154.712 95.0728 154.248 95.2137 153.854 95.2137L146.783 102.285C147.177 102.285 147.641 102.144 147.986 101.799L155.057 94.7277Z" fill="#00A822"/>
<path d="M123.083 70.3333C144.008 70.3333 154.382 77.5425 155.613 93.1917L148.541 100.263C147.311 84.6136 136.936 77.4044 116.012 77.4044L123.083 70.3333Z" fill="#00A822"/>
<path d="M153.854 95.2137H145.326L138.255 102.285H146.783L153.854 95.2137Z" fill="#00A822"/>
<path d="M145.326 95.2138C144.447 95.2138 143.656 94.5983 143.48 93.7192L136.409 100.79C136.585 101.669 137.376 102.285 138.255 102.285L145.326 95.2138Z" fill="#00A822"/>
<path d="M143.48 93.7192C141.458 84.6638 136.271 81.7625 123.083 81.7625L116.012 88.8336C129.2 88.8336 134.387 91.7348 136.409 100.79L143.48 93.7192Z" fill="#00A822"/>
<path d="M98.5323 78.1213C103.554 73.1021 111.996 70.3333 123.083 70.3333L116.012 77.4044C104.925 77.4044 96.4825 80.1731 91.4612 85.1924L98.5323 78.1213Z" fill="#00A822"/>
<path d="M184.625 143.216C184.625 146.941 183.116 150.464 180.554 153.024L173.487 160.091C176.046 157.531 177.554 154.009 177.554 150.287L184.625 143.216Z" fill="#00A822"/>
<path d="M128.622 99.7854C148.755 102.511 158.25 106.203 158.25 120.358L151.179 127.429C151.179 113.274 141.684 109.582 121.551 106.856L128.622 99.7854Z" fill="#00A822"/>
<path d="M123.083 81.7625C114.719 81.7625 110.464 83.3952 108.335 85.5252L101.266 92.5943C103.396 90.4653 107.651 88.8336 116.012 88.8336L123.083 81.7625Z" fill="#00A822"/>
<path d="M33.2325 55.8271L98.6425 18.0229L91.5714 25.094L26.1614 62.8982L33.2325 55.8271Z" fill="#00A822"/>
<path d="M172.171 144.814C172.603 144.381 172.844 143.799 172.844 143.216L165.773 150.287C165.773 150.87 165.532 151.452 165.099 151.885L172.171 144.814Z" fill="#00A822"/>
<path d="M158.25 120.358C158.25 126.076 156.337 130.816 152.71 134.442L145.643 141.509C149.267 137.884 151.179 133.145 151.179 127.429L158.25 120.358Z" fill="#00A822"/>
<path d="M171.877 145.062C171.983 144.987 172.08 144.904 172.17 144.815L165.099 151.885C165.01 151.975 164.912 152.058 164.806 152.134L171.877 145.062Z" fill="#00A822"/>
<path d="M180.554 153.024C179.729 153.849 178.795 154.573 177.767 155.173L170.696 162.244C171.724 161.644 172.658 160.92 173.483 160.095L180.554 153.024Z" fill="#00A822"/>
<path d="M104.533 28.2213L39.1229 65.9375L32.0519 73.0086L97.4619 35.2923L104.533 28.2213Z" fill="#00A822"/>
<path d="M106.291 90.9938C106.291 95.7413 108.313 97.1479 128.622 99.7854L121.551 106.857C101.242 104.219 99.2202 102.812 99.2202 98.0648L106.291 90.9938Z" fill="#00A822"/>
<path d="M143.002 127.124C144.58 125.544 145.326 123.482 145.326 120.885L138.255 127.957C138.255 130.553 137.509 132.615 135.931 134.195L143.002 127.124Z" fill="#00A822"/>
<path d="M108.335 85.5252C106.637 87.2238 106.291 89.2385 106.291 90.9937L99.2202 98.0648C99.2202 96.3096 99.5663 94.2948 101.264 92.5963L108.335 85.5252Z" fill="#00A822"/>
<path d="M145.326 120.885C145.326 116.665 143.656 113.5 122.292 111.39L115.221 118.461C136.585 120.571 138.255 123.736 138.255 127.956L145.326 120.885Z" fill="#00A822"/>
<path d="M93.2796 91.3454C93.2796 86.0053 95.1104 81.5445 98.527 78.1266L91.4612 85.1924C88.0413 88.611 86.2085 93.0736 86.2085 98.4165L93.2796 91.3454Z" fill="#00A822"/>
<path d="M82.9054 72.2675C83.9604 72.2675 84.8396 73.1467 84.8396 74.2017L77.7685 81.2727C77.7685 80.2177 76.8894 79.3386 75.8344 79.3386L82.9054 72.2675Z" fill="#00A822"/>
<path d="M74.7291 72.2675H82.9054L75.8343 79.3386H67.6581L74.7291 72.2675Z" fill="#00A822"/>
<path d="M122.292 111.39C104.357 109.632 93.2796 105.5 93.2796 91.3454L86.2085 98.4165C86.2085 112.571 97.286 116.703 115.221 118.461L122.292 111.39Z" fill="#00A822"/>
<path d="M125.721 131.26C134.553 131.26 140.141 129.983 143 127.126L135.931 134.195C133.072 137.054 127.484 138.331 118.65 138.331L125.721 131.26Z" fill="#00A822"/>
<path d="M73.2682 72.86C73.6322 72.4961 74.1464 72.2675 74.7292 72.2675L67.6581 79.3386C67.0754 79.3386 66.5612 79.5672 66.1971 79.9311L73.2682 72.86Z" fill="#00A822"/>
<path d="M152.71 134.442C147.303 139.848 138.086 142.777 125.721 142.777L118.65 149.848C131.015 149.848 140.231 146.919 145.639 141.514L152.71 134.442Z" fill="#00A822"/>
<path d="M72.7071 74.2017C72.7071 73.6849 72.918 73.2102 73.2677 72.8605L66.1971 79.9311C65.8472 80.2808 65.636 80.7557 65.636 81.2727L72.7071 74.2017Z" fill="#00A822"/>
<path d="M103.302 118.336C104.621 126.952 108.313 131.26 125.721 131.26L118.65 138.331C101.242 138.331 97.5498 134.023 96.231 125.407L103.302 118.336Z" fill="#00A822"/>
<path d="M101.368 116.753C102.335 116.753 103.126 117.457 103.302 118.336L96.231 125.407C96.0552 124.528 95.264 123.824 94.2969 123.824L101.368 116.753Z" fill="#00A822"/>
<path d="M92.9279 116.753H101.368L94.2969 123.824H85.8569L92.9279 116.753Z" fill="#00A822"/>
<path d="M125.721 142.777C97.06 142.777 91.0817 129.589 91.0817 118.688L84.0106 125.759C84.0106 136.66 89.989 149.848 118.65 149.848L125.721 142.777Z" fill="#00A822"/>
<path d="M91.6293 117.271C91.9575 116.943 92.4111 116.753 92.9279 116.753L85.8568 123.824C85.34 123.824 84.8864 124.014 84.5582 124.342L91.6293 117.271Z" fill="#00A822"/>
<path d="M106.467 182.779L171.877 145.062L164.806 152.134L99.396 189.85L106.467 182.779Z" fill="#00A822"/>
<path d="M30.4461 57.9756C31.2709 57.1512 32.2048 56.4266 33.2325 55.8271L26.1614 62.8982C25.1337 63.4977 24.1998 64.2223 23.3751 65.0467L30.4461 57.9756Z" fill="#00A822"/>
<path d="M84.8396 74.2017V148.667L77.7685 155.738V81.2727L84.8396 74.2017Z" fill="#00A822"/>
<path d="M91.0817 118.688C91.0817 118.105 91.2874 117.613 91.6289 117.272L84.5583 124.342C84.2165 124.684 84.0106 125.176 84.0106 125.759L91.0817 118.688Z" fill="#00A822"/>
<path d="M39.1229 65.9375C38.9866 66.0154 38.8633 66.1105 38.7538 66.22L31.6833 73.2905C31.7926 73.1813 31.9158 73.0863 32.0519 73.0086L39.1229 65.9375Z" fill="#00A822"/>
<path d="M38.7538 66.22C38.369 66.605 38.1558 67.1677 38.1558 67.7837L31.0848 74.8548C31.0848 74.2388 31.2979 73.6761 31.6827 73.2911L38.7538 66.22Z" fill="#00A822"/>
<path d="M177.768 155.173L112.358 192.889L105.286 199.96L170.696 162.244L177.768 155.173Z" fill="#00A822"/>
<path d="M26.375 67.7838C26.375 64.0616 27.8826 60.5404 30.4418 57.9801L23.3751 65.0467C20.8132 67.6074 19.304 71.1305 19.304 74.8548L26.375 67.7838Z" fill="#00A822"/>
<path d="M72.7071 148.667V74.2017L65.636 81.2727V155.738L72.7071 148.667Z" fill="#00A822"/>
<path d="M38.1558 67.7838V143.216L31.0848 150.287V74.8548L38.1558 67.7838Z" fill="#00A822"/>
<path d="M84.8396 148.667C84.8396 155.355 82.9583 160.58 79.4582 164.078L72.3913 171.145C75.8887 167.647 77.7685 162.423 77.7685 155.738L84.8396 148.667Z" fill="#00A822"/>
<path d="M104.445 182.779C105.06 183.13 105.94 183.13 106.467 182.779L99.396 189.85C98.8685 190.201 97.9894 190.201 97.374 189.85L104.445 182.779Z" fill="#00A822"/>
<path d="M26.375 143.216V67.7838L19.304 74.8548V150.287L26.375 143.216Z" fill="#00A822"/>
<path d="M70.232 154.685C71.8382 153.079 72.7071 150.879 72.7071 148.667L65.636 155.738C65.636 157.95 64.7671 160.15 63.1609 161.756L70.232 154.685Z" fill="#00A822"/>
<path d="M87.9166 172.756L104.445 182.779L97.3739 189.85L80.8456 179.827L87.9166 172.756Z" fill="#00A822"/>
<path d="M112.358 192.889C110.248 194.12 107.962 194.735 105.5 194.735L98.429 201.806C100.891 201.806 103.176 201.191 105.286 199.96L112.358 192.889Z" fill="#00A822"/>
<path d="M86.0704 172.668C86.51 172.405 87.2133 172.493 87.9166 172.756L80.8456 179.827C80.1422 179.564 79.4389 179.476 78.9993 179.739L86.0704 172.668Z" fill="#00A822"/>
<path d="M57.1458 155.349C63.0737 158.34 67.6223 157.294 70.2297 154.688L63.1609 161.756C60.5538 164.365 56.0043 165.412 50.0748 162.42L57.1458 155.349Z" fill="#00A822"/>
<path d="M105.5 194.735C103.038 194.735 100.752 194.12 98.6425 192.889L91.5714 199.96C93.6814 201.191 95.9672 201.806 98.4289 201.806L105.5 194.735Z" fill="#00A822"/>
<path d="M76.2238 177.152C80.5317 175.833 81.4109 175.306 86.0704 172.668L78.9994 179.739C74.3398 182.377 73.4606 182.904 69.1527 184.223L76.2238 177.152Z" fill="#00A822"/>
<path d="M79.4582 164.078C76.1487 167.387 71.392 169.152 65.41 169.152L58.3389 176.223C64.3209 176.223 69.0776 174.458 72.3871 171.149L79.4582 164.078Z" fill="#00A822"/>
<path d="M98.6425 192.889L76.8391 179.965L69.7681 187.036L91.5714 199.96L98.6425 192.889Z" fill="#00A822"/>
<path d="M75.0543 177.729C75.3222 177.461 75.8184 177.287 76.2238 177.152L69.1527 184.223C68.7473 184.358 68.2511 184.532 67.9832 184.8L75.0543 177.729Z" fill="#00A822"/>
<path d="M39.1229 145.062L57.1459 155.349L50.0748 162.42L32.0519 152.134L39.1229 145.062Z" fill="#00A822"/>
<path d="M76.8392 179.965C74.7822 178.829 74.625 178.159 75.0541 177.729L67.9832 184.8C67.5539 185.229 67.7109 185.9 69.7681 187.037L76.8392 179.965Z" fill="#00A822"/>
<path d="M38.1558 143.216C38.1558 143.92 38.5075 144.623 39.1229 145.062L32.0519 152.134C31.4364 151.694 31.0848 150.991 31.0848 150.287L38.1558 143.216Z" fill="#00A822"/>
<path d="M65.41 169.152C61.5417 169.152 58.7283 169.064 50.3762 165.02L43.3052 172.091C51.6573 176.135 54.4706 176.223 58.3389 176.223L65.41 169.152Z" fill="#00A822"/>
<path d="M50.3763 165.02L33.2325 155.173L26.1614 162.244L43.3052 172.091L50.3763 165.02Z" fill="#00A822"/>
<path d="M33.2325 155.173C29.0125 152.711 26.375 148.14 26.375 143.216L19.304 150.287C19.304 155.211 21.9415 159.782 26.1615 162.244L33.2325 155.173Z" fill="#00A822"/>
<path d="M105.5 16.2646C103.126 16.2646 100.665 16.88 98.6425 18.0229L33.2325 55.8271C29.0125 58.2888 26.375 62.8604 26.375 67.7838V143.216C26.375 148.14 29.0125 152.711 33.2325 155.173L50.3763 165.02C58.7283 169.064 61.5417 169.152 65.41 169.152C77.7183 169.152 84.8396 161.679 84.8396 148.667V74.2017C84.8396 73.1467 83.9604 72.2675 82.9054 72.2675H74.7292C73.5863 72.2675 72.7071 73.1467 72.7071 74.2017V148.667C72.7071 154.47 66.7288 160.184 57.1458 155.349L39.1229 145.063C38.5075 144.623 38.1558 143.92 38.1558 143.216V67.7838C38.1558 66.9925 38.5075 66.2892 39.1229 65.9375L104.533 28.2213C105.06 27.8696 105.94 27.8696 106.467 28.2213L171.877 65.9375C172.492 66.2892 172.844 66.9925 172.844 67.7838V143.216C172.844 143.92 172.492 144.623 171.877 145.063L106.467 182.779C105.94 183.13 105.06 183.13 104.445 182.779L87.9167 172.756C87.2133 172.493 86.51 172.405 86.0704 172.668C81.4108 175.306 80.5317 175.833 76.2238 177.152C75.1688 177.504 73.4983 178.119 76.8392 179.965L98.6425 192.889C100.753 194.12 103.038 194.735 105.5 194.735C107.962 194.735 110.248 194.12 112.358 192.889L177.767 155.173C181.987 152.711 184.625 148.14 184.625 143.216V67.7838C184.625 62.8604 181.987 58.2888 177.767 55.8271L112.358 18.0229C110.335 16.88 107.962 16.2646 105.5 16.2646ZM123.083 70.3333C104.445 70.3333 93.2796 78.1579 93.2796 91.3454C93.2796 105.5 104.357 109.632 122.292 111.39C143.656 113.5 145.326 116.665 145.326 120.885C145.326 128.183 139.436 131.26 125.721 131.26C108.313 131.26 104.621 126.952 103.302 118.336C103.126 117.457 102.335 116.753 101.368 116.753H92.9279C91.8729 116.753 91.0817 117.545 91.0817 118.688C91.0817 129.589 97.06 142.777 125.721 142.777C146.381 142.777 158.25 134.6 158.25 120.358C158.25 106.203 148.755 102.511 128.622 99.7854C108.313 97.1479 106.291 95.7413 106.291 90.9938C106.291 87.0375 108.05 81.7625 123.083 81.7625C136.271 81.7625 141.458 84.6638 143.48 93.7192C143.656 94.5983 144.447 95.2138 145.326 95.2138H153.854C154.294 95.2138 154.821 95.0379 155.173 94.5983C155.525 94.2467 155.788 93.7192 155.613 93.1917C154.382 77.5425 144.008 70.3333 123.083 70.3333Z" fill="#00CE5F"/>
</svg>
