<svg width="231" height="207" viewBox="0 0 231 207" fill="none" xmlns="http://www.w3.org/2000/svg">
<path d="M98.3241 93.1891C101.821 89.6913 106.632 87.5411 111.929 87.5411C122.572 87.5411 131.252 96.2211 131.252 107.071C131.252 112.224 129.094 116.991 125.611 120.476C122.108 123.98 117.265 126.188 111.929 126.188C101.286 126.188 92.6056 117.404 92.6056 107.071C92.6056 101.621 94.7955 96.719 98.3241 93.1891ZM64.0856 189.738C70.5956 193.664 84.8556 187.671 101.286 172.171C95.9123 166.074 90.6423 159.461 85.6823 152.538C77.2089 151.711 68.8389 150.471 60.8823 148.818C55.6123 170.931 57.5756 186.121 64.0856 189.738ZM71.4222 130.424L68.4256 125.154C67.2889 128.151 66.1523 131.148 65.4289 134.041C68.2189 134.661 71.3189 135.178 74.5223 135.694C73.4889 133.938 72.4556 132.181 71.4222 130.424ZM139.002 122.571L147.372 107.071L139.002 91.5711C135.902 86.0944 132.596 81.2377 129.599 76.3811C124.019 76.0711 118.129 76.0711 111.929 76.0711C105.729 76.0711 99.8389 76.0711 94.2589 76.3811C91.2623 81.2377 87.9556 86.0944 84.8556 91.5711L76.4856 107.071L84.8556 122.571C87.9556 128.048 91.2623 132.904 94.2589 137.761C99.8389 138.071 105.729 138.071 111.929 138.071C118.129 138.071 124.019 138.071 129.599 137.761C132.596 132.904 135.902 128.048 139.002 122.571ZM111.929 53.1311C111.627 53.4806 111.323 53.8327 111.016 54.1883C109.33 56.1451 107.581 58.2101 105.832 60.5711C107.899 60.5711 109.862 60.5711 111.929 60.5711C113.996 60.5711 115.959 60.5711 118.026 60.5711C115.959 57.7811 113.892 55.4044 111.929 53.1311ZM111.929 161.011C112.231 160.661 112.535 160.309 112.842 159.954C114.528 157.997 116.277 155.932 118.026 153.571C115.959 153.571 113.996 153.571 111.929 153.571C109.862 153.571 107.899 153.571 105.832 153.571C107.899 156.361 109.966 158.738 111.929 161.011ZM159.669 24.4044C153.262 20.4777 139.002 26.4711 122.572 41.9711C127.946 48.0677 133.216 54.6811 138.176 61.6044C146.649 62.4311 155.019 63.6711 162.976 65.3244C168.246 43.2111 166.282 28.0211 159.669 24.4044ZM152.436 83.7177L155.432 88.9877C156.569 85.9911 157.706 82.9944 158.429 80.1011C155.639 79.4811 152.539 78.9644 149.336 78.4477C150.369 80.2044 151.402 81.9611 152.436 83.7177ZM167.419 10.8677C182.609 19.5477 184.262 42.3844 177.856 69.0444C204.102 76.7944 223.012 89.6077 223.012 107.071C223.012 114.237 219.828 120.621 214.259 126.192C206.257 134.198 193.331 140.528 177.856 145.098C183.482 168.51 182.892 188.973 172.378 199.49C170.919 200.949 169.27 202.217 167.419 203.274C152.332 211.954 131.769 202.034 111.929 183.124C92.0889 202.034 71.5256 211.954 56.3356 203.274C41.2489 194.594 39.5956 171.758 46.0023 145.098C19.7556 137.348 0.845581 124.534 0.845581 107.071C0.845581 99.9047 4.03007 93.5213 9.59924 87.9496C17.6012 79.944 30.5264 73.614 46.0023 69.0444C40.3663 45.5916 40.9678 25.0975 51.4647 14.5969C52.9002 13.161 54.5207 11.9119 56.3356 10.8677C71.5256 2.18774 92.0889 12.1077 111.929 31.0177C131.769 12.1077 152.332 2.18774 167.419 10.8677ZM164.422 107.071C167.936 114.821 171.036 122.571 173.619 130.424C187.711 126.197 197.794 120.793 203.132 115.457C206.013 112.576 207.512 109.716 207.512 107.071C207.512 99.5277 195.319 90.2277 173.619 83.7177C171.036 91.5711 167.936 99.3211 164.422 107.071ZM59.4356 107.071C55.9223 99.3211 52.8223 91.5711 50.2389 83.7177C36.1469 87.9454 26.064 93.3496 20.7261 98.6852C17.8444 101.566 16.3456 104.426 16.3456 107.071C16.3456 114.614 28.5389 123.914 50.2389 130.424C52.8223 122.571 55.9223 114.821 59.4356 107.071ZM152.436 130.424C151.402 132.181 150.369 133.938 149.336 135.694C152.539 135.178 155.639 134.661 158.429 134.041C157.706 131.148 156.569 128.151 155.432 125.154L152.436 130.424ZM122.572 172.171C139.002 187.671 153.262 193.664 159.669 189.738C166.282 186.121 168.246 170.931 162.976 148.818C155.019 150.471 146.649 151.711 138.176 152.538C133.216 159.461 127.946 166.074 122.572 172.171ZM71.4222 83.7177C72.4556 81.9611 73.4889 80.2044 74.5223 78.4477C71.3189 78.9644 68.2189 79.4811 65.4289 80.1011C66.1523 82.9944 67.2889 85.9911 68.4256 88.9877L71.4222 83.7177ZM101.286 41.9711C84.8556 26.4711 70.5956 20.4777 64.0856 24.4044C57.5756 28.0211 55.6123 43.2111 60.8823 65.3244C68.8389 63.6711 77.2089 62.4311 85.6823 61.6044C90.6423 54.6811 95.9123 48.0677 101.286 41.9711Z" fill="#0055FF"/>
<path d="M184.927 61.9733C191.333 35.3133 189.68 12.4767 174.49 3.79666L167.419 10.8677C182.609 19.5477 184.262 42.3844 177.856 69.0444L184.927 61.9733Z" fill="#0055FF"/>
<path d="M174.49 3.79667C159.403 -4.88333 138.84 5.03666 119 23.9467L111.929 31.0177C131.769 12.1077 152.332 2.18773 167.419 10.8677L174.49 3.79667Z" fill="#0055FF"/>
<path d="M166.74 17.3333C173.353 20.95 175.317 36.14 170.047 58.2533L162.976 65.3244C168.246 43.2111 166.282 28.0211 159.669 24.4044L166.74 17.3333Z" fill="#0055FF"/>
<path d="M230.083 100C230.083 82.5367 211.173 69.7233 184.927 61.9733L177.856 69.0444C204.102 76.7944 223.012 89.6077 223.012 107.071L230.083 100Z" fill="#0055FF"/>
<path d="M129.643 34.9C146.073 19.4 160.333 13.4067 166.74 17.3333L159.669 24.4044C153.262 20.4777 139.002 26.4711 122.572 41.9711L129.643 34.9Z" fill="#0055FF"/>
<path d="M221.33 119.121C226.899 113.55 230.083 107.166 230.083 100L223.012 107.071C223.012 114.237 219.828 120.621 214.259 126.192L221.33 119.121Z" fill="#0055FF"/>
<path d="M180.69 76.6467C202.39 83.1567 214.583 92.4567 214.583 100L207.512 107.071C207.512 99.5277 195.319 90.2277 173.619 83.7177L180.69 76.6467Z" fill="#0055FF"/>
<path d="M214.583 100C214.583 102.645 213.085 105.505 210.203 108.386L203.139 115.449C206.016 112.571 207.512 109.713 207.512 107.071L214.583 100Z" fill="#0055FF"/>
<path d="M170.047 58.2533C162.09 56.6 153.72 55.36 145.247 54.5333L138.176 61.6044C146.649 62.4311 155.019 63.6711 162.976 65.3244L170.047 58.2533Z" fill="#0055FF"/>
<path d="M145.247 54.5333C140.287 47.61 135.017 40.9967 129.643 34.9L122.572 41.9711C127.946 48.0677 133.216 54.6811 138.176 61.6044L145.247 54.5333Z" fill="#0055FF"/>
<path d="M156.407 71.3766C159.61 71.8933 162.71 72.41 165.5 73.03L158.429 80.1011C155.639 79.4811 152.539 78.9644 149.336 78.4477L156.407 71.3766Z" fill="#0055FF"/>
<path d="M171.493 100C175.007 92.25 178.107 84.5 180.69 76.6467L173.619 83.7177C171.036 91.5711 167.936 99.3211 164.422 107.071L171.493 100Z" fill="#0055FF"/>
<path d="M162.503 81.9165L162.503 81.9167L155.432 88.9877L155.432 88.9876C156.569 85.991 157.706 82.9943 158.429 80.1011L165.5 73.03C164.777 75.9233 163.64 78.9199 162.503 81.9165Z" fill="#0055FF"/>
<path d="M159.507 76.6466L156.407 71.3766L149.336 78.4477L152.436 83.7177L159.507 76.6466Z" fill="#0055FF"/>
<path d="M162.503 81.9167L159.507 76.6467L152.436 83.7177L155.432 88.9877L162.503 81.9167Z" fill="#0055FF"/>
<path d="M210.203 108.386C204.865 113.721 194.782 119.126 180.69 123.353L173.619 130.424C187.711 126.197 197.794 120.793 203.132 115.457L210.203 108.386Z" fill="#0055FF"/>
<path d="M119 23.9467C99.16 5.03666 78.5966 -4.88333 63.4066 3.79667L56.3356 10.8677C71.5256 2.18773 92.0889 12.1077 111.929 31.0177L119 23.9467Z" fill="#0055FF"/>
<path d="M184.927 138.027C200.394 133.46 213.313 127.134 221.316 119.135L214.259 126.192C206.257 134.198 193.331 140.528 177.856 145.098L184.927 138.027Z" fill="#0055FF"/>
<path d="M119 46.06C120.963 48.3333 123.03 50.71 125.097 53.5L118.026 60.5711C115.959 57.7811 113.892 55.4044 111.929 53.1311L119 46.06Z" fill="#0055FF"/>
<path d="M118.087 47.1172C118.394 46.7616 118.698 46.4096 119 46.06L111.929 53.1311C111.627 53.4806 111.323 53.8327 111.016 54.1882L118.087 47.1172Z" fill="#0055FF"/>
<path d="M125.097 53.5H119L111.929 60.5711H118.026L125.097 53.5Z" fill="#0055FF"/>
<path d="M112.903 53.5C114.652 51.139 116.401 49.074 118.087 47.1172L111.016 54.1883C109.33 56.1451 107.581 58.2101 105.832 60.5711L112.903 53.5Z" fill="#0055FF"/>
<path d="M136.67 69.31C139.667 74.1667 142.973 79.0233 146.073 84.5L139.002 91.5711C135.902 86.0944 132.596 81.2377 129.599 76.3811L136.67 69.31Z" fill="#0055FF"/>
<path d="M180.69 123.353C178.107 115.5 175.007 107.75 171.493 100L164.422 107.071C167.936 114.821 171.036 122.571 173.619 130.424L180.69 123.353Z" fill="#0055FF"/>
<path d="M71.1566 17.3333C77.6666 13.4067 91.9266 19.4 108.357 34.9L101.286 41.9711C84.8556 26.4711 70.5956 20.4777 64.0856 24.4044L71.1566 17.3333Z" fill="#0055FF"/>
<path d="M119 53.5H112.903L105.832 60.5711H111.929L119 53.5Z" fill="#0055FF"/>
<path d="M119 69C125.2 69 131.09 69 136.67 69.31L129.599 76.3811C124.019 76.0711 118.129 76.0711 111.929 76.0711H111.929L119 69H119Z" fill="#0055FF"/>
<path d="M146.073 84.5L154.443 100L147.372 107.071L139.002 91.5711L146.073 84.5Z" fill="#0055FF"/>
<path d="M108.357 34.9C102.983 40.9967 97.7133 47.61 92.7533 54.5333L85.6823 61.6044C90.6423 54.6811 95.9123 48.0677 101.286 41.9711L108.357 34.9Z" fill="#0055FF"/>
<path d="M63.4066 3.79666C61.5917 4.84085 59.9712 6.08992 58.5358 7.52586L51.4704 14.5912C52.9045 13.1577 54.5231 11.9105 56.3356 10.8677L63.4066 3.79666Z" fill="#0055FF"/>
<path d="M154.443 100L146.073 115.5L139.002 122.571L147.372 107.071L154.443 100Z" fill="#0055FF"/>
<path d="M162.503 118.083C163.64 121.08 164.777 124.077 165.5 126.97L158.429 134.041C157.706 131.148 156.569 128.151 155.432 125.155L155.432 125.154L162.503 118.083L162.503 118.083Z" fill="#0055FF"/>
<path d="M119 69H119L111.929 76.0711H111.929C105.729 76.0711 99.8389 76.0711 94.2589 76.3811L101.33 69.31C106.91 69 112.8 69 119 69Z" fill="#0055FF"/>
<path d="M159.507 123.353L162.503 118.083L155.432 125.154L152.436 130.424L159.507 123.353Z" fill="#0055FF"/>
<path d="M138.323 100C138.323 89.15 129.643 80.47 119 80.47L111.929 87.5411C122.572 87.5411 131.252 96.2211 131.252 107.071L138.323 100Z" fill="#0055FF"/>
<path d="M165.5 126.97C162.71 127.59 159.61 128.107 156.407 128.623L149.336 135.694C152.539 135.178 155.639 134.661 158.429 134.041L165.5 126.97Z" fill="#0055FF"/>
<path d="M156.407 128.623L159.507 123.353L152.436 130.424L149.336 135.694L156.407 128.623Z" fill="#0055FF"/>
<path d="M68.0872 20.4028C68.9511 19.0196 69.9796 17.9873 71.1567 17.3333L68.0872 20.4028C64.1732 26.6695 63.6362 40.1384 67.9534 58.2533L60.8823 65.3244C55.6123 43.2111 57.5756 28.0211 64.0856 24.4044L68.0872 20.4028Z" fill="#0055FF"/>
<path d="M119 80.47C113.703 80.47 108.892 82.6202 105.395 86.118L98.3291 93.184C101.825 89.6892 106.634 87.5411 111.929 87.5411L119 80.47Z" fill="#0055FF"/>
<path d="M132.682 113.405C136.165 109.92 138.323 105.153 138.323 100L131.252 107.071C131.252 112.224 129.094 116.991 125.611 120.476L132.682 113.405Z" fill="#0055FF"/>
<path d="M92.7533 54.5333C84.2799 55.36 75.9099 56.6 67.9533 58.2533L60.8822 65.3244C68.8389 63.6711 77.2089 62.4311 85.6822 61.6044L92.7533 54.5333Z" fill="#0055FF"/>
<path d="M58.5358 7.52588C48.0388 18.0264 47.4373 38.5205 53.0733 61.9733L46.0022 69.0444C40.3663 45.5916 40.9677 25.0975 51.4647 14.5969L58.5358 7.52588Z" fill="#0055FF"/>
<path d="M91.9267 84.5C95.0267 79.0233 98.3333 74.1667 101.33 69.31L94.2589 76.3811C91.2623 81.2377 87.9556 86.0944 84.8556 91.5711L91.9267 84.5Z" fill="#0055FF"/>
<path d="M146.073 115.5C142.973 120.977 139.667 125.833 136.67 130.69L129.599 137.761C132.596 132.904 135.902 128.048 139.002 122.571L146.073 115.5Z" fill="#0055FF"/>
<path d="M179.449 192.419C189.963 181.902 190.553 161.439 184.927 138.027L177.856 145.098C183.482 168.51 182.892 188.973 172.378 199.49L179.449 192.419Z" fill="#0055FF"/>
<path d="M145.247 145.467C153.72 144.64 162.09 143.4 170.047 141.747L162.976 148.818C155.019 150.471 146.649 151.711 138.176 152.538L145.247 145.467Z" fill="#0055FF"/>
<path d="M119 119.117C124.333 119.117 129.174 116.911 132.676 113.41L125.611 120.476C122.108 123.98 117.265 126.188 111.929 126.188L119 119.117Z" fill="#0055FF"/>
<path d="M105.395 86.118C101.867 89.6479 99.6767 94.5502 99.6767 100L92.6056 107.071C92.6056 101.621 94.7955 96.7189 98.3241 93.189L105.395 86.118Z" fill="#0055FF"/>
<path d="M170.047 141.747C175.317 163.86 173.353 179.05 166.74 182.667L162.863 186.544C161.97 187.99 160.9 189.064 159.669 189.738L162.863 186.544C166.763 180.225 167.264 166.814 162.976 148.818L170.047 141.747Z" fill="#0055FF"/>
<path d="M81.5933 71.3766L78.4933 76.6466L71.4222 83.7177L74.5222 78.4477L81.5933 71.3766Z" fill="#0055FF"/>
<path d="M72.5 73.03C75.29 72.41 78.39 71.8933 81.5934 71.3766L74.5223 78.4477C71.319 78.9644 68.219 79.4811 65.429 80.1011L72.5 73.03Z" fill="#0055FF"/>
<path d="M99.6767 100C99.6767 110.333 108.357 119.117 119 119.117L111.929 126.188C101.286 126.188 92.6056 117.404 92.6056 107.071L99.6767 100Z" fill="#0055FF"/>
<path d="M78.4933 76.6467L75.4966 81.9167L68.4255 88.9877L71.4222 83.7177L78.4933 76.6467Z" fill="#0055FF"/>
<path d="M119 131H119L111.929 138.071H111.929C118.129 138.071 124.019 138.071 129.599 137.761L136.67 130.69C131.09 131 125.2 131 119 131Z" fill="#0055FF"/>
<path d="M75.4967 81.9167C74.36 78.92 73.2234 75.9233 72.5 73.03L65.429 80.1011C66.1523 82.9944 67.289 85.9911 68.4256 88.9877L75.4967 81.9167Z" fill="#0055FF"/>
<path d="M83.5567 100L91.9267 84.5L84.8556 91.5711L76.4856 107.071L83.5567 100Z" fill="#0055FF"/>
<path d="M174.49 196.203C176.339 195.147 177.987 193.881 179.445 192.424L172.378 199.49C170.919 200.949 169.27 202.217 167.419 203.274L174.49 196.203Z" fill="#0055FF"/>
<path d="M129.643 165.1C135.017 159.003 140.287 152.39 145.247 145.467L138.176 152.538C133.216 159.461 127.946 166.074 122.572 172.171L129.643 165.1Z" fill="#0055FF"/>
<path d="M91.9267 115.5L83.5567 100L76.4856 107.071L84.8556 122.571L91.9267 115.5Z" fill="#0055FF"/>
<path d="M119 131C112.8 131 106.91 131 101.33 130.69L94.2589 137.761C99.8389 138.071 105.729 138.071 111.929 138.071H111.929L119 131H119Z" fill="#0055FF"/>
<path d="M119 146.5H125.097L118.026 153.571H111.929L119 146.5Z" fill="#0055FF"/>
<path d="M166.74 182.667C160.333 186.593 146.073 180.6 129.643 165.1L122.572 172.171C139.002 187.671 153.262 193.664 159.669 189.738L166.74 182.667Z" fill="#0055FF"/>
<path d="M57.31 76.6467C59.8933 84.5 62.9933 92.25 66.5066 100L59.4356 107.071C55.9222 99.3211 52.8222 91.5711 50.2389 83.7177L57.31 76.6467Z" fill="#0055FF"/>
<path d="M101.33 130.69C98.3333 125.833 95.0267 120.977 91.9267 115.5L84.8556 122.571C87.9556 128.048 91.2623 132.904 94.2589 137.761L101.33 130.69Z" fill="#0055FF"/>
<path d="M125.097 146.5C123.348 148.861 121.599 150.926 119.913 152.883L112.842 159.954C114.528 157.997 116.277 155.932 118.026 153.571L125.097 146.5Z" fill="#0055FF"/>
<path d="M112.903 146.5H119L111.929 153.571H105.832L112.903 146.5Z" fill="#0055FF"/>
<path d="M119.913 152.883C119.606 153.238 119.302 153.59 119 153.94L111.929 161.011C112.231 160.661 112.535 160.309 112.842 159.954L119.913 152.883Z" fill="#0055FF"/>
<path d="M119 153.94C117.037 151.667 114.97 149.29 112.903 146.5L105.832 153.571C107.899 156.361 109.966 158.738 111.929 161.011L119 153.94Z" fill="#0055FF"/>
<path d="M53.0733 61.9733C37.5975 66.543 24.6723 72.873 16.6703 80.8786L9.61243 87.9365C17.6154 79.9371 30.5349 73.6115 46.0023 69.0444L53.0733 61.9733Z" fill="#0055FF"/>
<path d="M119 176.053C138.84 194.963 159.403 204.883 174.49 196.203L167.419 203.274C152.332 211.954 131.769 202.034 111.929 183.124L119 176.053Z" fill="#0055FF"/>
<path d="M27.7971 91.6142C33.135 86.2785 43.2179 80.8743 57.3099 76.6467L50.2389 83.7177C36.1468 87.9454 26.0639 93.3496 20.7261 98.6852L27.7971 91.6142Z" fill="#0055FF"/>
<path d="M75.4966 118.083L78.4933 123.353L71.4222 130.424L68.4255 125.154L75.4966 118.083Z" fill="#0055FF"/>
<path d="M78.4933 123.353L81.5933 128.623L74.5222 135.694L71.4222 130.424L78.4933 123.353Z" fill="#0055FF"/>
<path d="M72.5 126.97C73.2234 124.077 74.36 121.08 75.4967 118.083L68.4256 125.154C67.289 128.151 66.1523 131.148 65.429 134.041L72.5 126.97Z" fill="#0055FF"/>
<path d="M66.5066 100C62.9933 107.75 59.8933 115.5 57.31 123.353L50.2389 130.424C52.8222 122.571 55.9222 114.821 59.4356 107.071L66.5066 100Z" fill="#0055FF"/>
<path d="M81.5934 128.623C78.39 128.107 75.29 127.59 72.5 126.97L65.429 134.041C68.219 134.661 71.319 135.178 74.5223 135.694L81.5934 128.623Z" fill="#0055FF"/>
<path d="M92.7533 145.467C97.7133 152.39 102.983 159.003 108.357 165.1L101.286 172.171C95.9123 166.074 90.6423 159.461 85.6823 152.538L92.7533 145.467Z" fill="#0055FF"/>
<path d="M67.9533 141.747C75.9099 143.4 84.2799 144.64 92.7533 145.467L85.6822 152.538C77.2089 151.711 68.8389 150.471 60.8822 148.818L67.9533 141.747Z" fill="#0055FF"/>
<path d="M23.4166 100C23.4166 97.3576 24.9128 94.4997 27.7896 91.6217L20.7261 98.6852C17.8444 101.566 16.3456 104.426 16.3456 107.071L23.4166 100Z" fill="#0055FF"/>
<path d="M57.31 123.353C35.61 116.843 23.4166 107.543 23.4166 100L16.3456 107.071C16.3456 114.614 28.5389 123.914 50.2389 130.424L57.31 123.353Z" fill="#0055FF"/>
<path d="M16.6703 80.8786C11.1011 86.4503 7.91665 92.8336 7.91665 100L0.845581 107.071C0.845581 99.9047 4.03007 93.5213 9.59924 87.9496L16.6703 80.8786Z" fill="#0055FF"/>
<path d="M108.357 165.1C91.9266 180.6 77.6666 186.593 71.1566 182.667L64.0856 189.738C70.5956 193.664 84.8556 187.671 101.286 172.171L108.357 165.1Z" fill="#0055FF"/>
<path d="M7.91665 100C7.91665 117.463 26.8267 130.277 53.0733 138.027L46.0023 145.098C19.7556 137.348 0.845581 124.534 0.845581 107.071L7.91665 100Z" fill="#0055FF"/>
<path d="M71.1567 182.667C64.6467 179.05 62.6834 163.86 67.9534 141.747L60.8823 148.818C55.6123 170.931 57.5756 186.121 64.0856 189.738L71.1567 182.667Z" fill="#0055FF"/>
<path d="M63.4066 196.203C78.5966 204.883 99.16 194.963 119 176.053L111.929 183.124C92.0889 202.034 71.5256 211.954 56.3356 203.274L63.4066 196.203Z" fill="#0055FF"/>
<path d="M53.0733 138.027C46.6666 164.687 48.32 187.523 63.4066 196.203L56.3356 203.274C41.2489 194.594 39.5956 171.758 46.0022 145.098L53.0733 138.027Z" fill="#0055FF"/>
<path d="M119 80.47C129.643 80.47 138.323 89.15 138.323 100C138.323 110.333 129.643 119.117 119 119.117C108.357 119.117 99.6766 110.333 99.6766 100C99.6766 89.15 108.357 80.47 119 80.47ZM71.1566 182.667C77.6666 186.593 91.9266 180.6 108.357 165.1C102.983 159.003 97.7133 152.39 92.7533 145.467C84.28 144.64 75.91 143.4 67.9533 141.747C62.6833 163.86 64.6466 179.05 71.1566 182.667ZM78.4933 123.353L75.4966 118.083C74.36 121.08 73.2233 124.077 72.5 126.97C75.29 127.59 78.39 128.107 81.5933 128.623C80.56 126.867 79.5266 125.11 78.4933 123.353ZM146.073 115.5L154.443 100L146.073 84.5C142.973 79.0233 139.667 74.1667 136.67 69.31C131.09 69 125.2 69 119 69C112.8 69 106.91 69 101.33 69.31C98.3333 74.1667 95.0266 79.0233 91.9266 84.5L83.5566 100L91.9266 115.5C95.0266 120.977 98.3333 125.833 101.33 130.69C106.91 131 112.8 131 119 131C125.2 131 131.09 131 136.67 130.69C139.667 125.833 142.973 120.977 146.073 115.5ZM119 46.06C117.037 48.3333 114.97 50.71 112.903 53.5C114.97 53.5 116.933 53.5 119 53.5C121.067 53.5 123.03 53.5 125.097 53.5C123.03 50.71 120.963 48.3333 119 46.06ZM119 153.94C120.963 151.667 123.03 149.29 125.097 146.5C123.03 146.5 121.067 146.5 119 146.5C116.933 146.5 114.97 146.5 112.903 146.5C114.97 149.29 117.037 151.667 119 153.94ZM166.74 17.3333C160.333 13.4067 146.073 19.4 129.643 34.9C135.017 40.9967 140.287 47.61 145.247 54.5333C153.72 55.36 162.09 56.6 170.047 58.2533C175.317 36.14 173.353 20.95 166.74 17.3333ZM159.507 76.6467L162.503 81.9167C163.64 78.92 164.777 75.9233 165.5 73.03C162.71 72.41 159.61 71.8933 156.407 71.3767C157.44 73.1333 158.473 74.89 159.507 76.6467ZM174.49 3.79667C189.68 12.4767 191.333 35.3133 184.927 61.9733C211.173 69.7233 230.083 82.5367 230.083 100C230.083 117.463 211.173 130.277 184.927 138.027C191.333 164.687 189.68 187.523 174.49 196.203C159.403 204.883 138.84 194.963 119 176.053C99.16 194.963 78.5966 204.883 63.4066 196.203C48.32 187.523 46.6666 164.687 53.0733 138.027C26.8266 130.277 7.91663 117.463 7.91663 100C7.91663 82.5367 26.8266 69.7233 53.0733 61.9733C46.6666 35.3133 48.32 12.4767 63.4066 3.79667C78.5966 -4.88333 99.16 5.03667 119 23.9467C138.84 5.03667 159.403 -4.88333 174.49 3.79667ZM171.493 100C175.007 107.75 178.107 115.5 180.69 123.353C202.39 116.843 214.583 107.543 214.583 100C214.583 92.4567 202.39 83.1567 180.69 76.6467C178.107 84.5 175.007 92.25 171.493 100ZM66.5066 100C62.9933 92.25 59.8933 84.5 57.31 76.6467C35.61 83.1567 23.4166 92.4567 23.4166 100C23.4166 107.543 35.61 116.843 57.31 123.353C59.8933 115.5 62.9933 107.75 66.5066 100ZM159.507 123.353C158.473 125.11 157.44 126.867 156.407 128.623C159.61 128.107 162.71 127.59 165.5 126.97C164.777 124.077 163.64 121.08 162.503 118.083L159.507 123.353ZM129.643 165.1C146.073 180.6 160.333 186.593 166.74 182.667C173.353 179.05 175.317 163.86 170.047 141.747C162.09 143.4 153.72 144.64 145.247 145.467C140.287 152.39 135.017 159.003 129.643 165.1ZM78.4933 76.6467C79.5266 74.89 80.56 73.1333 81.5933 71.3767C78.39 71.8933 75.29 72.41 72.5 73.03C73.2233 75.9233 74.36 78.92 75.4966 81.9167L78.4933 76.6467ZM108.357 34.9C91.9266 19.4 77.6666 13.4067 71.1566 17.3333C64.6466 20.95 62.6833 36.14 67.9533 58.2533C75.91 56.6 84.28 55.36 92.7533 54.5333C97.7133 47.61 102.983 40.9967 108.357 34.9Z" fill="#0094FF"/>
</svg>
