<svg width="150" height="150" viewBox="0 0 150 150" fill="none" xmlns="http://www.w3.org/2000/svg">
<path d="M15.2145 22.2855H127.714V134.786H15.2145V22.2855ZM82.152 115.161C85.277 121.286 91.5895 125.973 101.464 125.973C107.102 125.973 111.944 124.325 115.097 121.173C117.537 118.734 118.964 115.395 118.964 111.223C118.964 102.411 113.902 98.473 104.902 94.598L102.277 93.473C97.7145 91.5355 95.777 90.223 95.777 87.098C95.777 85.8665 96.2245 84.7648 97.0363 83.9527C97.9136 83.0751 99.2164 82.5355 100.839 82.5355C103.839 82.5355 105.839 83.848 107.652 87.098L115.839 81.6605C112.402 75.6605 107.527 73.348 100.839 73.348C95.9008 73.348 91.8864 74.9911 89.1813 77.6951C86.7171 80.1582 85.3395 83.5017 85.3395 87.2855C85.3395 95.9105 90.402 99.973 98.027 103.223L100.652 104.348C105.527 106.473 108.402 107.786 108.402 111.411C108.402 112.643 107.927 113.738 107.065 114.601C105.828 115.839 103.792 116.598 101.214 116.598C96.027 116.598 93.027 113.911 90.777 110.161L82.152 115.161ZM77.7145 73.848H46.4645V83.223H55.8395V128.536H66.777V83.223H77.7145V73.848Z" fill="#0062FF"/>
<path d="M131.25 18.75H18.75L15.2145 22.2855H127.714L131.25 18.75Z" fill="#0062FF"/>
<path d="M131.25 131.25V18.75L127.714 22.2855V134.786L131.25 131.25Z" fill="#0062FF"/>
<path d="M104.375 69.8125C111.063 69.8125 115.938 72.125 119.375 78.125L115.839 81.6605C112.402 75.6605 107.527 73.348 100.839 73.348L104.375 69.8125Z" fill="#0062FF"/>
<path d="M119.375 78.125L111.188 83.5625L107.652 87.098L115.839 81.6605L119.375 78.125Z" fill="#0062FF"/>
<path d="M92.7168 74.1596C95.4219 71.4556 99.4363 69.8125 104.375 69.8125L100.839 73.348C95.9008 73.348 91.8864 74.9911 89.1813 77.6951L92.7168 74.1596Z" fill="#0062FF"/>
<path d="M111.188 83.5625C109.375 80.3125 107.375 79 104.375 79L100.839 82.5355C103.839 82.5355 105.839 83.848 107.652 87.098L111.188 83.5625Z" fill="#0062FF"/>
<path d="M104.375 79C102.752 79 101.449 79.5395 100.572 80.4172L97.0375 83.9516C97.9148 83.0746 99.2171 82.5355 100.839 82.5355L104.375 79Z" fill="#0062FF"/>
<path d="M100.572 80.4172C99.76 81.2293 99.3125 82.3309 99.3125 83.5625L95.777 87.098C95.777 85.8665 96.2245 84.7648 97.0363 83.9527L100.572 80.4172Z" fill="#0062FF"/>
<path d="M105.813 89.9375L108.438 91.0625L104.902 94.598L102.277 93.473L105.813 89.9375Z" fill="#0062FF"/>
<path d="M108.438 91.0625C117.438 94.9375 122.5 98.875 122.5 107.688L118.964 111.223C118.964 102.411 113.902 98.473 104.902 94.598L108.438 91.0625Z" fill="#0062FF"/>
<path d="M99.3125 83.5625C99.3125 86.6875 101.25 88 105.813 89.9375L102.277 93.473C97.7145 91.5355 95.777 90.223 95.777 87.098L99.3125 83.5625Z" fill="#0062FF"/>
<path d="M88.875 83.75C88.875 79.9681 90.2513 76.6261 92.713 74.1633L89.1813 77.6951C86.7171 80.1582 85.3395 83.5017 85.3395 87.2855L88.875 83.75Z" fill="#0062FF"/>
<path d="M122.5 107.688C122.5 111.859 121.072 115.199 118.633 117.638L115.101 121.17C117.538 118.731 118.964 115.393 118.964 111.223L122.5 107.688Z" fill="#0062FF"/>
<path d="M81.25 70.3125V79.6875L77.7145 83.223V73.848L81.25 70.3125Z" fill="#0062FF"/>
<path d="M111.938 107.875C111.938 104.25 109.063 102.938 104.188 100.812L100.652 104.348C105.527 106.473 108.402 107.786 108.402 111.411L111.938 107.875Z" fill="#0062FF"/>
<path d="M101.563 99.6875C93.9375 96.4375 88.875 92.375 88.875 83.75L85.3395 87.2855C85.3395 95.9105 90.402 99.973 98.027 103.223L101.563 99.6875Z" fill="#0062FF"/>
<path d="M104.188 100.812L101.563 99.6875L98.027 103.223L100.652 104.348L104.188 100.812Z" fill="#0062FF"/>
<path d="M110.6 111.065C111.463 110.203 111.937 109.107 111.937 107.875L108.402 111.411C108.402 112.643 107.927 113.738 107.065 114.601L110.6 111.065Z" fill="#0062FF"/>
<path d="M81.25 79.6875H70.3125L66.777 83.223H77.7145L81.25 79.6875Z" fill="#0062FF"/>
<path d="M104.75 113.062C107.327 113.062 109.362 112.304 110.599 111.067L107.065 114.601C105.828 115.839 103.792 116.598 101.214 116.598L104.75 113.062Z" fill="#0062FF"/>
<path d="M50 70.3125H81.25L77.7145 73.848H46.4645L50 70.3125Z" fill="#0062FF"/>
<path d="M118.633 117.638C115.48 120.789 110.637 122.438 105 122.438L101.464 125.973C107.102 125.973 111.944 124.325 115.097 121.173L118.633 117.638Z" fill="#0062FF"/>
<path d="M94.3125 106.625C96.5625 110.375 99.5625 113.062 104.75 113.062L101.214 116.598C96.027 116.598 93.027 113.911 90.777 110.161L94.3125 106.625Z" fill="#0062FF"/>
<path d="M85.6875 111.625L94.3125 106.625L90.777 110.161L82.152 115.161L85.6875 111.625Z" fill="#0062FF"/>
<path d="M105 122.438C95.125 122.438 88.8125 117.75 85.6875 111.625L82.152 115.161C85.277 121.286 91.5895 125.973 101.464 125.973L105 122.438Z" fill="#0062FF"/>
<path d="M59.375 79.6875H50L46.4645 83.223H55.8395L59.375 79.6875Z" fill="#0062FF"/>
<path d="M50 79.6875V70.3125L46.4645 73.848V83.223L50 79.6875Z" fill="#0062FF"/>
<path d="M70.3125 79.6875V125L66.777 128.536V83.223L70.3125 79.6875Z" fill="#0062FF"/>
<path d="M59.375 125V79.6875L55.8395 83.223V128.536L59.375 125Z" fill="#0062FF"/>
<path d="M18.75 18.75V131.25L15.2145 134.786V22.2855L18.75 18.75Z" fill="#0062FF"/>
<path d="M18.75 131.25H131.25L127.714 134.786H15.2145L18.75 131.25Z" fill="#0062FF"/>
<path d="M70.3125 125H59.375L55.8395 128.536H66.777L70.3125 125Z" fill="#0062FF"/>
<path d="M18.75 18.75H131.25V131.25H18.75V18.75ZM85.6875 111.625C88.8125 117.75 95.125 122.438 105 122.438C115 122.438 122.5 117.25 122.5 107.687C122.5 98.875 117.438 94.9375 108.438 91.0625L105.813 89.9375C101.25 88 99.3125 86.6875 99.3125 83.5625C99.3125 81 101.25 79 104.375 79C107.375 79 109.375 80.3125 111.188 83.5625L119.375 78.125C115.938 72.125 111.063 69.8125 104.375 69.8125C94.9375 69.8125 88.875 75.8125 88.875 83.75C88.875 92.375 93.9375 96.4375 101.562 99.6875L104.188 100.812C109.063 102.937 111.937 104.25 111.937 107.875C111.937 110.875 109.125 113.063 104.75 113.063C99.5625 113.063 96.5625 110.375 94.3125 106.625L85.6875 111.625ZM81.25 70.3125H50V79.6875H59.375V125H70.3125V79.6875H81.25V70.3125Z" fill="#00A3FF"/>
</svg>
